<?xml version="1.0" encoding="UTF-8"?>
<svg id="Layer_1" xmlns="http://www.w3.org/2000/svg" xmlns:xlink="http://www.w3.org/1999/xlink" baseProfile="tiny" version="1.2" viewBox="0 0 350 350">
  <!-- Generator: Adobe Illustrator 30.1.0, SVG Export Plug-In . SVG Version: 2.1.1 Build 136)  -->
  <rect x="0" width="350" height="350" fill="#f2efeb"/>
  <sodipodi:namedview id="namedview3007" bordercolor="#666666" borderopacity="1" fit-margin-bottom="0" fit-margin-left="0" fit-margin-right="0" fit-margin-top="0" gridtolerance="10" guidetolerance="10" objecttolerance="10" pagecolor="#ffffff" showgrid="false"/>
  <g>
    <image id="g3063" width="272" height="615" transform="translate(222.9 19) scale(.2)" xlink:href="Thumbnail-AllStar-1.png"/>
    <g id="g30631" data-name="g3063">
      <g id="g3122">
        <g id="g3029">
          <path id="rect2987" d="M62,34.2c0-8.4,6.8-15.2,15.2-15.2h34.7c8.4,0,15.2,6.8,15.2,15.2v117.2c0,8.4-6.8,15.2-15.2,15.2h-34.7c-8.4,0-15.2-6.8-15.2-15.2" fill="#fff"/>
          <path id="path2989" d="M103.2,46.1v.5c1.1.6,1.6,1.1,2.7,1.8,2.8,1.8,6.3,4.9,5.8,15.8.8,2.4,1.2,7,1.9,8.5,1.4,2.9,2.4,4.8,2.9,7.6,0,0,.4,4.3,1,4.6,2.9.7,2.1,1,2.5,1.5.5.6,2.1.5,2.1,2.1.6.8,1,1.6,1.4,2.4v-56.5c0-6.5-5.2-11.7-11.7-11.7h-11.1c1.8.6,2.8,1.4,3.4,2.6,1.4.1,3.1,3.3.5,8.1,1.2.8.3,2-.6,3.4-.3.4-.5,1.2-1.3,1.2-1,2.2-2.3,4.2-3.2,4.3-.3.3-.5,1.3,0,1.7,1.4.6,3,1.4,3.8,2.2h0Z" fill="#c8202f"/>
          <path id="path2991" d="M113.6,162.8h-.1c5.1-3.1,1.9-9,1-12.5l.2-.6c.3-.5-.3-1.6-.3-1.6-.6-.5-.8-3.4-1.1-4.8-.5-2.2,1-5.9,1-7.2s-1-3-2.7-5.3c-.4-.5-1.7-11.5-2.9-14.2-1.6-3.8-2.1-3.2-4-7.8-1.4-3.2-.3-7.9-3.6-18.9l.7-.7s-2.6-9.6-3.5-12.2c-.8-2.6-2.4-2.8-2.4-2.8v-1.4c.2-.4,3.3-8.4,3.5-8.6,0-.2,4.4-3.2,4.5-2.7.4,1.9,2.1,11.9,2.8,13.4.7,1.6,3.3,6.4,4.4,9.5-4.5,1.1-7.9,5.2-7.9,10.1s4.7,10.4,10.4,10.4,8.2-2.7,9.7-6.6v52.8c0,5.8-4.2,10.7-9.8,11.5h0Z" fill="#c8202f"/>
          <path id="path2993" d="M96.9,22.6c-3.8,1.5-4.3,3.1-4.5,8.4-.6,0-2-.5-1.5,2.7,0,0,.2,2.1,1.1,1.8-.7,4.7-.1,5.8-3.2,6.2-.7,0-1.5.1-2.5.2l-.3.4c-4.2.4-6.3.1-9.1,3.7-1,1.4-2.2,3.3-3.5,6.1,0,0-1.3,3.1-1.6,4.4-1.2,2.5-4.2,8.2-5.1,11.8-.3,1.2-.8,1.6,0,3.4,1.2,2.6-.8,3.2,5.8,3v1.5s-1.8,1.5-2.1,2.4c-.4.9-1.4,5.5-1.3,7.6.1,5.6,4.7,10.3,6.1,15.9l3.1.4c1.7,3.8,8.9,14.1,10.6,15.8,0,0,0,0,0,0,.4,1,2.3,2.2,3.4,3.4.7.6,3.7,4,7.8,7.1,1.5,1.2,3.1,2.3,4.8,3.3,0,0,1,2.1,1.5,3.8-2.1,1.7,2,4.8,3.2,9.9,0,.7-1.2,1.4.7,3.1-.1,7.7-2.5,11.8,1.5,13.9h-34.8c-6.3-.1-11.4-5.3-11.4-11.7V34.3c0-6.4,5.1-11.5,11.4-11.7h20Z" fill="#1d4488"/>
        </g>
      </g>
    </g>
    <image id="g30632" data-name="g3063" width="271" height="615" transform="translate(142.5 19) scale(.2)" xlink:href="Thumbnail-AllStar-2.png"/>
  </g>
  <g>
    <path d="M88.1,183.9v56.9h-5.3v-56.9h-6.7v-5h18.7v5h-6.8Z" fill="#403f3e"/>
    <path d="M110.5,212h-7.5v28.8h-5.3v-61.9h5.3v28.4h7.5v-28.4h5.3v61.9h-5.3v-28.8Z" fill="#403f3e"/>
    <path d="M135.2,240.9h-14.4v-61.9h14.4v5h-9.1v22.8h8v4.6h-8v24.5h9.1v5Z" fill="#403f3e"/>
    <path d="M146,240.9v-61.9h6.9c8.2,0,11.3,4.5,11.3,16.4v29.6c0,11.6-3.6,16-10.8,16h-7.3ZM151.3,183.9v51.9h2.5c3.9,0,5-3.7,5-10.8v-29.8c0-7.1-.9-11.3-5-11.3h-2.5Z" fill="#403f3e"/>
    <path d="M183.6,240.9h-14.4v-61.9h14.4v5h-9.1v22.8h8v4.6h-8v24.5h9.1v5Z" fill="#403f3e"/>
    <path d="M205.1,229.9c0,8.5-3.1,11.5-9,11.5s-9.1-2.9-9.1-11.5v-40.1c0-8.5,3.2-11.5,9.1-11.5s9,2.9,9,11.5v11.9h-5.3v-12.7c0-4-1-5.6-3.7-5.6s-3.8,1.6-3.8,5.6v41.6c0,4,1.1,5.6,3.8,5.6s3.7-1.6,3.7-5.6v-12.2h5.3v11.5Z" fill="#403f3e"/>
    <path d="M209.7,240.9v-61.9h5.3v56.9h8.8v5h-14.1Z" fill="#403f3e"/>
    <path d="M232.4,178.9v61.9h-5.3v-61.9h5.3Z" fill="#403f3e"/>
    <path d="M242.5,240.9h-4.9v-61.9h7.4l9.1,55.8c-.8-9.6-1.6-23.7-1.6-30.4v-25.4h4.8v61.9h-6.9l-8.8-55.1c.5,9.4,1,20.6,1,26.2v28.9Z" fill="#403f3e"/>
    <path d="M276.8,240.9h-14.4v-61.9h14.4v5h-9.1v22.8h8v4.6h-8v24.5h9.1v5Z" fill="#403f3e"/>
  </g>
  <g>
    <path d="M115.1,296.6h-8.2l-1,9.1h-3.9l6.8-57.1h5.1l6,57.1h-4l-.9-9.1ZM107.4,293h7.4l-2.6-26c-.3-3.5-.7-11-1-15.2-.2,4.3-.7,11.8-1,15.2l-2.8,26Z" fill="#403f3e"/>
    <path d="M123.5,305.7v-57.1h3.8v53.5h8.7v3.6h-12.6Z" fill="#403f3e"/>
    <path d="M139.4,305.7v-57.1h3.8v53.5h8.7v3.6h-12.6Z" fill="#403f3e"/>
  </g>
  <g>
    <path d="M202.3,296c0,7.6-3.3,10.2-7.9,10.2s-8.1-2.6-8.1-9.8v-9.4h3.8v9.9c0,4,1.4,5.7,4.2,5.7s4.2-2.2,4.2-6v-2.6c0-6.2-1.5-8.5-6-15-3.8-5.6-6.1-9.8-6.1-16.7v-3.8c0-7.5,3.1-10.4,8-10.4s8,2.1,8,10.4v9h-3.8v-9.6c0-4.2-1.3-6.2-4.2-6.2s-4.2,1.9-4.2,6.2v3.3c0,6.8,1.8,9.8,5.6,15.3,4.7,6.7,6.6,9.8,6.6,16.5v3Z" fill="#403f3e"/>
    <path d="M215.1,252.1v53.6h-3.8v-53.6h-6.6v-3.5h17.3v3.5h-6.8Z" fill="#403f3e"/>
    <path d="M234.4,296.6h-8.2l-1,9.1h-3.9l6.8-57.1h5.1l6,57.1h-4l-.9-9.1ZM226.7,293h7.4l-2.6-26c-.3-3.5-.7-11-1-15.2-.2,4.3-.7,11.8-1,15.2l-2.8,26Z" fill="#403f3e"/>
    <path d="M246.6,305.7h-3.8v-57.1h7.3c6.6,0,8.8,4.6,8.8,14v9.4c0,7.5-1.4,11.9-5.3,13.4.9.8,1.4,2.2,1.9,4.2.5,1.9,3.5,16.1,3.5,16.1h-4.2l-4-19.7h-4.2v19.7ZM246.6,252.2v30.2h3.3c4.6,0,5.1-4.2,5.1-9.7v-10.9c0-5.4-.5-9.7-5.1-9.7h-3.3Z" fill="#403f3e"/>
  </g>
  <polygon points="166.4 271.4 169.7 281.1 180 281.1 171.8 287.4 174.8 297.1 166.4 291.1 158.2 297.1 161.2 287.4 153.1 281.1 163.4 281.1 166.4 271.4" fill="#d9c8ba"/>
  <g>
    <path d="M157.6,263c0,2.5-1,3.2-2.7,3.2s-2.6-.7-2.6-3.2v-8.6c0-2.5,1-3.2,2.6-3.2s2.7.7,2.7,3.2v8.6ZM153.9,254.1v9.2c0,1.1.3,1.5,1.1,1.5s1.1-.5,1.1-1.5v-9.2c0-1.1-.3-1.5-1.1-1.5s-1.1.5-1.1,1.5Z" fill="#403f3e"/>
    <path d="M160.8,252.7v13.4h-1.6v-13.4h-.9v-1.4h.9v-1.8c0-1.8.7-2.3,1.9-2.3s.7,0,.9.1v1.3h-.3c-.7,0-.9.3-.9,1v1.8h1.1v1.4h-1.1Z" fill="#403f3e"/>
    <path d="M166.9,266.2c-1.1,0-1.8-.6-1.8-2.2v-11.3h-.9v-1.4h.9v-2.8l1.6-.3v3h1.1v1.4h-1.1v11.2c0,.6.2.9.8.9h.4v1.3c-.2,0-.6.1-.9.1Z" fill="#403f3e"/>
    <path d="M170.3,253v13.1h-1.6v-18.9h1.6v4.8c.4-.4,1-.8,1.9-.8s1.9.6,1.9,2.2v12.7h-1.6v-12.4c0-.7-.3-1.1-1-1.1s-.8.2-1.2.4Z" fill="#403f3e"/>
    <path d="M178.1,266.2c-1.6,0-2.6-.7-2.6-3.2v-8.6c0-2.5,1-3.2,2.6-3.2s2.7.7,2.7,3.2v4.9h-3.7v4c0,1.1.3,1.5,1.1,1.5s1.1-.5,1.1-1.5v-2.3h1.6v2c0,2.5-1,3.2-2.7,3.2ZM177.1,258.1h2.1v-4.1c0-1.1-.3-1.5-1.1-1.5s-1.1.5-1.1,1.5v4.1Z" fill="#403f3e"/>
  </g>
  <g>
    <path d="M157.4,327.7c-.4.6-1.1,1.1-1.9,1.1-1.3,0-2.3-.8-2.3-3.1v-12.6c0-2.6,1-3.5,2.8-3.5s2.7,1,2.7,3.5v3.6h-1.6v-3.8c0-1.2-.3-1.7-1.1-1.7s-1.2.6-1.2,1.7v12.8c0,1,.4,1.5,1.2,1.5s.8-.2,1.1-.4v-5.6h-1.3v-1.6h3v9h-1l-.3-.9Z" fill="#403f3e"/>
    <path d="M163.9,325.7h-2.4l-.3,2.9h-1.6l2.1-18.9h2.2l1.8,18.9h-1.7l-.2-2.9ZM161.7,324.2h2.1l-.6-6.7c-.1-1.1-.3-4.4-.4-6.4-.1,2-.3,5.2-.4,6.4l-.7,6.7Z" fill="#403f3e"/>
    <path d="M168.3,328.6h-1.5v-18.9h2.2l1.7,12.2,1.8-12.2h2v18.9h-1.6v-8.4c0-1.4.2-5.9.3-8.1l-2.1,14.2h-1.1l-2-13.9c.1,2.3.2,6.4.2,7.8v8.4Z" fill="#403f3e"/>
    <path d="M180.4,328.6h-4.4v-18.9h4.4v1.5h-2.8v7h2.4v1.4h-2.4v7.5h2.8v1.5Z" fill="#403f3e"/>
  </g>
</svg>