<?xml version="1.0" encoding="utf-8"?>
<!-- Generator: Adobe Illustrator 27.2.0, SVG Export Plug-In . SVG Version: 6.00 Build 0)  -->
<svg version="1.1" id="Layer_1" xmlns="http://www.w3.org/2000/svg" xmlns:xlink="http://www.w3.org/1999/xlink" x="0px" y="0px"
	 viewBox="0 0 228 233.9" style="enable-background:new 0 0 228 233.9;" xml:space="preserve">
<style type="text/css">
	.st0{fill:#4D77CF;}
	.st1{fill:#4DABCF;}
</style>
<g id="Layer_1_00000078750171413473086460000004185071213195265717_">
	<path class="st0" d="M263.2,86c0.6,0.1,1.1,0.2,1.6,0.4c0.5,0.2,1,0.6,1.4,0.9c0.5,0.5,1,1,1.5,1.6l41.5,52.5
		c-0.2-1.7-0.3-3.3-0.4-4.9s-0.1-3.1-0.1-4.5V85.8h17.9v87.4h-10.6c-1.4,0-2.7-0.2-4-0.7c-1.2-0.6-2.3-1.5-3.1-2.6l-41.2-52
		c0.1,1.5,0.2,3,0.3,4.5s0.1,2.8,0.1,4.1v46.8h-17.9V85.8H261C261.7,85.8,262.5,85.9,263.2,86z"/>
	<path class="st0" d="M356,111v39.5c0,3.1,0.7,5.5,2.1,7.1c1.6,1.7,3.8,2.7,6.2,2.5c2,0,3.9-0.4,5.7-1.3c1.9-0.9,3.6-2.1,5.2-3.5
		V111h18.6v62.2h-11.5c-2.1,0.2-4-1.1-4.6-3.1l-1.1-3.6c-1.2,1.1-2.4,2.2-3.7,3.2c-1.3,0.9-2.7,1.7-4.1,2.4
		c-1.5,0.7-3.1,1.2-4.8,1.6c-1.8,0.4-3.7,0.6-5.5,0.6c-3.1,0.1-6.2-0.5-9-1.8c-2.6-1.1-4.8-2.8-6.6-4.9c-1.8-2.2-3.2-4.8-4.1-7.5
		c-0.9-3.1-1.4-6.3-1.4-9.5V111H356z"/>
	<path class="st0" d="M405.8,173.2V111h11.5c1,0,2,0.2,2.9,0.8c0.8,0.6,1.4,1.4,1.6,2.3l1,3.4c1-1.1,2.1-2.1,3.2-3
		c1.1-0.9,2.3-1.7,3.6-2.3c2.8-1.4,6-2.2,9.1-2.1c3.4-0.1,6.6,0.9,9.3,2.9c2.5,2,4.5,4.7,5.6,7.8c1-1.8,2.3-3.5,3.8-4.9
		c1.5-1.3,3.1-2.4,4.9-3.3c1.8-0.8,3.6-1.5,5.5-1.9c1.9-0.4,3.9-0.6,5.8-0.6c3.2-0.1,6.4,0.5,9.5,1.6c2.6,1,5,2.6,6.9,4.6
		c1.9,2.1,3.4,4.7,4.2,7.4c1,3.2,1.5,6.6,1.4,10v39.5h-18.6v-39.5c0-6.4-2.8-9.7-8.3-9.6c-2.3-0.1-4.6,0.8-6.3,2.5
		c-1.7,1.6-2.5,4-2.5,7.2v39.5h-18.6v-39.5c0-3.6-0.7-6.1-2.1-7.5s-3.5-2.1-6.2-2.1c-1.7,0-3.3,0.4-4.8,1.1c-1.6,0.8-3,1.8-4.2,3.1
		v45L405.8,173.2z"/>
	<path class="st0" d="M526.9,144v29.2h-20.3V85.8h30.8c5.4-0.1,10.7,0.6,15.9,2.2c4,1.2,7.7,3.3,10.9,6c2.8,2.5,5,5.6,6.3,9.1
		c1.4,3.6,2,7.4,2,11.3c0,4.1-0.7,8.2-2.1,12c-1.4,3.6-3.6,6.8-6.4,9.4c-3.2,2.8-6.9,4.8-10.9,6.1c-5.1,1.6-10.3,2.3-15.7,2.2H526.9
		z M526.9,128.7h10.5c5.3,0,9.1-1.2,11.4-3.8s3.5-6,3.5-10.6c0-1.9-0.3-3.7-0.9-5.5c-0.6-1.6-1.5-3-2.7-4.2
		c-1.3-1.2-2.9-2.2-4.6-2.7c-2.1-0.7-4.4-1-6.6-1h-10.5V128.7z"/>
	<path class="st0" d="M608.6,189.4c-0.4,1.1-1.1,2-2,2.7c-1.2,0.7-2.5,1-3.8,0.9h-13.9l12-25.2L576,111h16.4c1.2-0.1,2.4,0.3,3.4,1
		c0.8,0.6,1.3,1.4,1.7,2.3l10.2,26.8c0.9,2.4,1.7,4.9,2.3,7.4c0.4-1.3,0.8-2.5,1.3-3.8s0.9-2.5,1.4-3.8l9.2-26.7
		c0.3-1,1-1.8,1.9-2.3c0.9-0.6,1.9-0.9,3-0.9h15L608.6,189.4z"/>
	<polygon class="st1" points="96.4,57.4 59.2,38.7 18.5,59 56.6,78.2 	"/>
	<polygon class="st1" points="113.4,66 152.3,85.7 111.9,105.9 73.8,86.8 	"/>
	<polygon class="st1" points="165.4,38.9 205.4,59 169.6,77 130.6,57.3 	"/>
	<polygon class="st1" points="148.2,30.3 112.2,12.2 76.6,30 113.7,48.7 	"/>
	<polygon class="st1" points="120,185.4 120,234.5 163.7,212.7 163.6,163.6 	"/>
	<polygon class="st1" points="163.6,146.4 163.6,97.8 120,119.4 120,168.1 	"/>
	<polygon class="st1" points="216,137.3 216,186.6 178.8,205.2 178.7,156.1 	"/>
	<polygon class="st1" points="216,120.1 216,71.7 178.7,90.2 178.7,139 	"/>
	<path class="st0" d="M104.6,119.4l-29.4-14.8v63.8c0,0-35.9-76.5-39.3-83.3c-0.4-0.9-2.2-1.9-2.6-2.1C26.9,79.7,8,70.1,8,70.1
		v112.8l26.1,14v-59c0,0,35.5,68.3,35.9,69.1s3.9,7.9,7.7,10.5c5.1,3.4,26.8,16.5,26.8,16.5L104.6,119.4z"/>
</g>
</svg>
