<?xml version="1.0" encoding="utf-8"?>
<!-- Generator: Adobe Illustrator 27.2.0, SVG Export Plug-In . SVG Version: 6.00 Build 0)  -->
<svg version="1.1" id="Layer_1" xmlns="http://www.w3.org/2000/svg" xmlns:xlink="http://www.w3.org/1999/xlink" x="0px" y="0px"
	 viewBox="0 0 161 247" style="enable-background:new 0 0 161 247;" xml:space="preserve">
<style type="text/css">
	.st0{fill:#130754;}
	.st1{fill:#FFCA00;}
	.st2{fill:#E70488;}
</style>
<path class="st0" d="M271.9,162.2c-10.3,0-20.7-4.2-27.3-12.6v45H224V83.5h18.6l0.7,12.2c6.4-9.4,17.7-14.3,28.5-14.3
	c20.7,0,36,17.4,36,40.4S292.6,162.2,271.9,162.2z M265.5,96.7c-12,0-21.8,9.4-21.8,25.2s9.7,25.2,21.8,25.2s21.8-9.4,21.8-25.2
	S277.5,96.7,265.5,96.7z"/>
<path class="st0" d="M385.4,160.1l-0.7-12.2c-6.4,9.4-17.7,14.4-28.5,14.3c-20.7,0-36-17.4-36-40.4s15.2-40.4,36-40.4
	c10.8,0,22.1,5,28.5,14.4l0.7-12.2H404v76.5H385.4z M362.5,96.7c-12,0-21.8,9.4-21.8,25.2s9.7,25.2,21.8,25.2s21.8-9.4,21.8-25.2
	S374.6,96.7,362.5,96.7L362.5,96.7z"/>
<path class="st0" d="M475.9,160.1v-42.3c0-14.9-5.1-19.8-14.5-19.8c-9.8,0-20.4,8.9-20.4,19.5v42.7h-20.6V83.6h18.8l0.9,14.2
	c5.1-9.8,16.6-16.3,28.4-16.3c20.4,0,28,14.2,28,33.1v45.5L475.9,160.1z"/>
<path class="st0" d="M571.8,160.1l-0.7-12.2c-6.4,9.4-17.7,14.4-28.5,14.4c-20.7,0-36-17.4-36-40.4s15.2-40.4,36-40.4
	c10.3,0,20.7,4.3,27.3,12.6V53.8h20.6v106.3H571.8z M548.9,96.7c-12,0-21.8,9.4-21.8,25.1s9.7,25.2,21.8,25.2s21.8-9.4,21.8-25.1
	S561,96.7,548.9,96.7z"/>
<path class="st0" d="M667.6,160.1l-0.7-12.2c-6.4,9.4-17.7,14.3-28.5,14.3c-20.7,0-36-17.4-36-40.4s15.2-40.4,36-40.4
	c10.8,0,22.2,5,28.5,14.4l0.7-12.2h18.6v76.5L667.6,160.1z M644.8,96.7c-12,0-21.8,9.4-21.8,25.2s9.8,25.1,21.8,25.1
	s21.8-9.4,21.8-25.2S656.8,96.7,644.8,96.7L644.8,96.7z"/>
<path class="st0" d="M731.7,162.6c-10.8-0.1-21.4-3.1-30.7-8.7l3.4-14.2c6.2,3.7,15.6,8.5,26.9,8.5c8.2,0,13.8-2.5,13.8-8.9
	c0-5.5-5.8-7.4-16.3-9.9c-18.8-4.1-25.5-14-25.5-24.8c0-12.1,9.4-23.4,30.1-23.4c12.6,0,23.6,5.5,26,6.9l-3.4,13.5
	c-6.7-4-14.3-6.2-22.1-6.4c-8.3,0-12.4,2.8-12.4,7.4c0,5.1,5.3,7.4,13.5,9.4c20.2,4.2,28.3,13.6,28.3,23.9
	C763.5,152.5,751.4,162.6,731.7,162.6z"/>
<rect x="48.1" y="20.5" class="st0" width="25.5" height="53"/>
<rect x="48.1" y="129.4" class="st0" width="25.5" height="53"/>
<rect x="48.1" y="89" class="st1" width="25.5" height="25"/>
<rect x="7" y="64.1" class="st0" width="25.5" height="176.3"/>
<rect x="88.2" y="173.2" class="st0" width="25.5" height="53"/>
<rect x="88.2" y="64.1" class="st0" width="25.5" height="53"/>
<rect x="88.2" y="132.6" class="st2" width="25.5" height="25"/>
<rect x="128.4" y="6.6" class="st0" width="25.5" height="176.3"/>
</svg>
