<?xml version="1.0" encoding="utf-8"?>
<!-- Generator: Adobe Illustrator 27.2.0, SVG Export Plug-In . SVG Version: 6.00 Build 0)  -->
<svg version="1.1" id="Layer_1" xmlns="http://www.w3.org/2000/svg" xmlns:xlink="http://www.w3.org/1999/xlink" x="0px" y="0px"
	 viewBox="0 0 800 800" style="enable-background:new 0 0 800 800;" xml:space="preserve">
<style type="text/css">
	.st0{fill:url(#SVGID_1_);}
	.st1{fill:url(#SVGID_00000161622811375870034570000016582155710500573877_);}
</style>
<linearGradient id="SVGID_1_" gradientUnits="userSpaceOnUse" x1="-121.9487" y1="924.151" x2="-90.2197" y2="892.3157" gradientTransform="matrix(12.5 0 0 -12.5 1598.5 11623.5)">
	<stop  offset="0" style="stop-color:#387EB8"/>
	<stop  offset="1" style="stop-color:#366994"/>
</linearGradient>
<path class="st0" d="M397.1,0C193.5,0,206.2,88.3,206.2,88.3l0.3,91.5h194.3v27.4H129.2c0,0-130.3-14.8-130.3,190.7
	c0,205.4,113.7,198.2,113.7,198.2h67.9v-95.3c0,0-3.7-113.7,111.9-113.7h192.7c0,0,108.3,1.8,108.3-104.6V106.5
	C593.5,106.5,609.9,0,397.1,0z M290,61.5c19.3,0,35,15.6,35,35s-15.6,35-35,35c-19.3,0-34.9-15.6-35-34.9c0,0,0-0.1,0-0.1
	C255,77.2,270.6,61.5,290,61.5z"/>
<linearGradient id="SVGID_00000170263090996242460120000005496536975075246260_" gradientUnits="userSpaceOnUse" x1="-102.4362" y1="903.8841" x2="-68.359" y2="871.2367" gradientTransform="matrix(12.5 0 0 -12.5 1598.5 11623.5)">
	<stop  offset="0" style="stop-color:#FFE052"/>
	<stop  offset="1" style="stop-color:#FFC331"/>
</linearGradient>
<path style="fill:url(#SVGID_00000170263090996242460120000005496536975075246260_);" d="M402.9,797.9
	c203.6,0,190.9-88.3,190.9-88.3l-0.3-91.5H399.2v-27.4h271.5c0,0,130.3,14.8,130.3-190.7S687.3,201.8,687.3,201.8h-67.9v95.3
	c0,0,3.7,113.7-111.9,113.7H314.8c0,0-108.3-1.8-108.3,104.6v175.9C206.5,691.5,190.1,797.9,402.9,797.9z M510,736.4
	c-19.3,0-34.9-15.6-35-34.9c0,0,0-0.1,0-0.1c0-19.3,15.6-34.9,35-34.9s35,15.6,35,34.9C545,720.8,529.4,736.4,510,736.4z"/>
</svg>
