<?xml version="1.0" encoding="UTF-8"?><svg id="Layer_1" xmlns="http://www.w3.org/2000/svg" viewBox="0 0 1144.39 769.56"><defs><style>.cls-1{font-size:66.06px;}.cls-2{font-size:43.06px;}.cls-3{fill:#205363;font-family:NeoSansMediumTR, 'Neo Sans TR';}.cls-4{fill:#616e8e;}.cls-4,.cls-5,.cls-6,.cls-7,.cls-8,.cls-9,.cls-10,.cls-11,.cls-12,.cls-13,.cls-14,.cls-15,.cls-16,.cls-17,.cls-18,.cls-19,.cls-20,.cls-21,.cls-22,.cls-23,.cls-24,.cls-25,.cls-26,.cls-27,.cls-28,.cls-29,.cls-30,.cls-31,.cls-32,.cls-33,.cls-34,.cls-35,.cls-36,.cls-37,.cls-38,.cls-39,.cls-40,.cls-41{stroke-width:0px;}.cls-5{fill:#5d6690;}.cls-6{fill:#754f57;}.cls-7{fill:#454c5e;}.cls-8{fill:#283650;}.cls-9{fill:#5b576b;}.cls-10{fill:#637190;}.cls-11{fill:#6e8aa7;}.cls-12{fill:#3b3947;}.cls-13{fill:#396631;}.cls-14{fill:#273058;}.cls-15{fill:#599575;}.cls-16{fill:#374641;}.cls-17{fill:#d0b7b0;}.cls-18{fill:#cac1e0;}.cls-19{fill:#d7dfe1;}.cls-20{fill:#cadfbc;}.cls-21{fill:#c6d0df;}.cls-22{fill:#e1c9ba;}.cls-23{fill:#def0e3;}.cls-24{fill:#c25042;}.cls-25{fill:#bdd8c1;}.cls-26{fill:#a9746b;}.cls-27{fill:#92b1c6;}.cls-28{fill:#866d5d;}.cls-29{fill:#9d94ae;}.cls-30{fill:#9dc1db;}.cls-31{fill:#9d6d79;}.cls-32{fill:#8ca975;}.cls-33{fill:#8ca98f;}.cls-34{fill:#8c7065;}.cls-35{fill:#99a6c0;}.cls-36{fill:#999eaa;}.cls-37{fill:#744f58;}.cls-38{fill:#f4efe9;}.cls-39{fill:#005c71;}.cls-40{fill:#0064a4;}.cls-41{fill:#687772;}</style></defs><path class="cls-13" d="m348.93,509.2s8.42-26.68,23.52-35.45c15.09-8.78,28.08-18.6,28.08-18.6,0,0-.7-13.69,14.04-19.31,14.74-5.62,21.41,2.46,21.41,2.46,0,0,30.89-6.32,36.15-5.62,0,0-13.46,37.32-7.02,49.49,0,0,39.66,24.57,115.13,14.39,0,0,30.85-23.05,6.47-59.61,0,0,5.81-4.62,20.56,2.05,0,0,26.68,4.56,33,17.9,0,0-17.57,100.37-20.03,108.09l-271.31-55.79Z"/><path class="cls-32" d="m571.92,408.46s22.64,5.44,23.66-57.03c.08-4.6,1.81-30.69.82-35.99-13.87-74.59-21.76,47.04-21.76,47.04l-2.72,45.98Z"/><path class="cls-20" d="m601.2,499.02l-2.81-57.57s-22-6.55-22.47-14.04,0-17.78,0-17.78c0,0,5.62-37.91,4.21-58.5,0,0,21.53-26.56,12.05-45.87-9.48-19.31-25.1,2.11-25.1,2.11l-21.24-49.49-54.06-24.22-43.53,8.78s-12.99,43.88-12.29,51.25-1.76,23.87,5.27,30.54c0,0-2.46,27.73,9.83,37.21,0,0-.35,17.9,1.4,23.52,1.76,5.62,8.44,24.92,14.4,26.33,0,0,7.36-1.76,5.26,21.41,0,0-22.82,8.78-47.39,16.15-24.57,7.37,17.9,38.61,17.9,38.61l64.59,15.44,85.65,1.76,8.31-3.51"/><path class="cls-32" d="m478.81,355.46s23.52.7,34.4,8.42c0,0,32.64-14.39,37.91-26.33,5.27-11.93.7-13.69-2.81-15.8-3.51-2.11-5.27-8.42-3.51-11.23,1.76-2.81-.35-14.39-9.48-23.52-9.13-9.13-28.08-22.47-35.45-24.57-7.37-2.11-9.45-2.81-15.43,0-5.98,2.81-16.99,10.53-22.01,7.72-5.03-2.81-9.59-2.81-13.45,1.4s-13.76,23.17-13.76,26.33-1.69-17.2.77-24.22c2.46-7.02,35.1-45.98,35.1-45.98l51.95,8.07,35.1,23.52,17.55,24.92s-7.37,58.97-9.83,68.1c-2.46,9.13-23.17,55.11-30.54,57.92s-36.51,15.09-53.71,9.83c-17.2-5.27-27.79-21.79-29.13-35.1-1.34-13.31,7.37-24.22,26.33-29.49Z"/><path class="cls-20" d="m466.88,377.22s17.89-8.07,27.37-2.46c9.48,5.62,17.55,16.5,7.72,14.74-9.83-1.76-18.98-5.81-32.29.19-13.31,6-4.59-11.74-2.8-12.47Z"/><path class="cls-13" d="m568.14,309.83s-35.8-57.57-75.82-63.18c-40.02-5.62-31.13-4.91-31.13-4.91,0,0-30.65,26.68-26.44,51.95,0,0-11.93-41.77,42.12-82.84l17.91,6.32s70.19-16.5,91.6,34.05c0,0,34.04,48.1,8.76,110.93,0,0,3.71-60.62-8.4-63.25-6.21-1.35-6.42-3.4-11.07.94l-7.55,10Z"/><path class="cls-15" d="m1065.76,223.87s17.32-6.48,17.8-21.25c.48-14.77,7.06-103.38,2.38-110.27-4.68-6.89-32.81-61.45-65.55-66.05-32.75-4.59-27.99,1.53-36.03-.19-8.04-1.72-25.99-.51-35.68,4.75-9.7,5.26-42.56,59.77-40.86,74.13s16.07,82.67,32.15,87.86,125.78,31.03,125.78,31.03Z"/><path class="cls-25" d="m1070.93,250.29l3.45-20.68s-.57-25.85,0-29.29c.57-3.45,4.59-4.06,7.47-7.49s7.47-26.7,11.49-31.72c4.02-5.02,9.76-38.33,0-37.76-9.76.57-18.38,18.38-22.4,31.59,0,0-12.64-48.82-11.49-52.84,1.15-4.02,3.45-20.68-12.06-22.4-15.51-1.72-51.94-12.06-63.01-14.36-11.08-2.3-52.43,14.93-55.3,20.68-2.87,5.74-2.87,85,3.45,99.36,6.32,14.36,18.38,69.5,32.74,72.94l-2.3,13.21,11.49,39.06,62.6-8.33,33.89-51.98Z"/><path class="cls-15" d="m959.51,265.8s-42.66,47.67-111.79,60.88c0,0-7.87,41.93-18.11,48.24l325.63,90.58,5.29-166.39s-69.99-51.98-74.58-56c0,0,2.21,15.79-6.4,28.43-8.62,12.64-43.08,97.06-43.08,97.06h-81.56s-1.72-100.51,4.59-102.81Z"/><path class="cls-23" d="m1074.38,229.61s-37.33,64.33-60.88,71.22c-23.55,6.89-24.7-8.62-24.7-8.62,0,0-21.25-18.38-23.55-33.89l-10.41,13.53s.07,103.06-2.8,103.06,88.45,0,88.45,0c0,0,51.88-119.18,45.46-131.81-6.42-12.64-11.57-13.5-11.57-13.5Z"/><path class="cls-15" d="m989.48,294.88l-15.04,15.72s14.36,11.49,14.93,14.36-.1,17.23,5.69,19.53l-10.7,30.44h36.03s-11.49-17.8-8.62-26.99c2.87-9.19,13.23-21.25,8.62-29.87-4.6-8.62-6.9-17.23-6.9-17.23,0,0-9.66,5.53-24.02-5.96Z"/><path class="cls-15" d="m1080.67,123.6l-23.22,7.57s-2.9-10.3-20.7-10.1c-17.8.19-39.86,1.34-43.34,6.13-3.48,4.79-1.94,11.49-1.94,11.49h-8.16s3.7-15.32-25.51-13.21c-29.22,2.11-30.57,9.57-30.57,9.57l1.35,33.45s8.51,7.9,23.61,6.37c15.09-1.53,29.94-3.06,31.13-28.14h9.12s7.16,25.67,20.7,24.8,36.15.39,40.44-5.82,3.68-21.66,3.68-21.66l21.43-13.78,1.98-6.66Z"/><path class="cls-25" d="m1035.07,126.2c5.14,1.08,12.17,4.07,13.19,9.22,1.76,8.92,1.04,23.87-.49,26.04-2.3,3.25-27.57,7.11-35.99,4.23-8.42-2.87-18.95-23.38-9.96-35.63,0,0,15.78-7.53,33.25-3.86Z"/><path class="cls-25" d="m961.04,130.86s-21.83-1.88-28.14,5.55c-6.32,7.43-2.52,33.89,17.13,32.08,17.49-1.61,28.24,1.58,29.58-23.5,0,0,2.01-14.74-18.57-14.13Z"/><path class="cls-19" d="m783.33,348.11s74.54,11.67,84.63,14.68v69.49l-12.54,60.29-19.1,6.2-21.93-2.83-35.36-38.9v-80.63l4.3-28.29Z"/><path class="cls-7" d="m823.5,387.01l10,14.86-1.7,2.64c-4.61,7.18-4.91,16.31-.73,23.74,6.76,12.01,23.31,40.01,17.99,70.51,0,0-14.49,2.38-43.43-4.7l-1.83-42.98s9.37-42.68,5.66-52.4l14.05-11.67Z"/><path class="cls-7" d="m653.14,488.16s2.12-84.85,17.68-95.47,101.14-44.57,101.14-44.57l8.49-14.97s31.12,162.79,33.95,162.79-87-18.39-161.26-7.78Z"/><path class="cls-7" d="m873.1,355.89s87.7,38.21,92.65,45.98c4.95,7.77,21.93,56.57,18.39,82.04,0,0-100.43,26.88-147.82,14.85,0,0,29-124.48,28.29-132.97,0,0,7.78-6.37,8.49-9.9Z"/><path class="cls-27" d="m775.62,252.05s11.32,31.59-.47,35.84c0,0-9.43-15.56-16.97-12.26-7.54,3.3.94,44.62,14.38,45.65,0,0,12.7,55.14,49.9,64.22,0,0,37.57-10.85,50.06-26.41,12.5-15.56,15.32-56.58,14.85-61.3-.47-4.72,3.3-61.77-5.19-70.26-8.49-8.49-30.51-32.41-42.55-29.71-13.38,3.01-17.15-2.48-17.15-2.48,0,0-37.43,13.32-41.67,19.45-4.24,6.13-5.19,37.25-5.19,37.25Z"/><path class="cls-11" d="m835.74,203.96s-27.58-.94-35.13,4.72c-7.54,5.66-16.97,26.88-13.67,52.81s-8.02,26.41-11.79,26.41-6.13-13.2-16.97-12.26c0,0-5.73-44.95,13.86-62.71,18.2-16.5,20.2-20.39,46.49-20.75,24.36-.33,60.76,6.6,69.28,35.84,8.52,29.23.25,61.76,0,59.88-.25-1.88-4.68-15.37-4.21-36.31.47-20.94-13.9-46.62-47.86-47.62Z"/><path class="cls-39" d="m740.05,377.33s6.09,46.54,7.23,51.96,5.7,23.08,5.41,25.36c-.28,2.28,3.42,3.42,4.27,8.26s4.84,22.51,4.56,26.79,9.4,14.25,9.69,16.81-7.45,19.09-30.23,7.69c-22.78-11.4-15.62-20.89-19.8-24.87s-12.01-5.79-13.19-18.39-6.73-7.58-5.67-16.59c1.07-9.01,6.08-44.73,9.4-45.1s1.92-21.35,1.92-21.35l26.39-10.59Z"/><path class="cls-21" d="m693.14,280.51s-67.82-17.64-87.2,14.84c-19.38,32.49-19.95,55.28-16.53,60.98,0,0-1.61,74.3,22.3,94.82,0,0-3.63,1.92-3.85,6.84-.21,4.92,31.66,42.1,32.61,42.1s37.07.43,43.69-4.27c6.63-4.7,14.53-24.79,14.53-24.79,0,0,4.7-12.61,3.63-16.67-1.07-4.06,9.4-45.1,9.4-45.1,0,0,17.31.21,22.87-19.02,0,0,8.69-21.23,2.14-30.78-8.38-12.21-10.69-10.26-10.69-10.26l-11.75,4.49,9.62-50.44-30.78-22.75Z"/><path class="cls-5" d="m518.96,525.53s25.86-45.52,59.42-47.87c0,0,14.96-12.61,21.59-12.82,0,0,5.32-16.46,8.86-16.57l2.89,2.89s-5.34,25.65,50.44,46.38c0,0,24.83,2.72,40.31-40.85l15.19,10.22s12.25-2.92,13.39,3.7l19.38,4.06s37.19,22.03,37.62,25.44,0,14.95,0,14.95l7.49,166.73-276.57-156.25Z"/><path class="cls-5" d="m611.68,288.29s21.05-31.13,45.84-33.12c0,0,5.13,2.56,18.24,1.42,0,0,19.66.85,22.23,2.85,2.56,1.99,32.77,24.22,36.76,25.08,3.99.85,31.06,45.88,1.99,74.95,0,0-3.13-7.69-14.25-4.27-11.11,3.42-6.55,11.97-13.39,9.97-6.84-1.99,3.42-37.62-1.42-47.02-4.84-9.4-2.56-19.95-9.4-24.22s-17.95-13.39-26.22-13.11c-8.26.28-36.3,1.71-40.23,1.42-3.94-.28-17.71,3.55-20.14,6.05Z"/><path class="cls-35" d="m374.29,489.14l33.63-41.75-9.86-25.51s19.81-14.49,20.87-30.73c1.16-17.78-13.34-11.6-19.13,0l13.34-57.4-26.67-64.36-90.45-13.92s-41.75,44.65-42.33,47.55c-.58,2.9,0,57.4,0,57.4l11.6,34.21,6.38,8.7s11.02,35.95,26.09,44.65l-5.22,47.55,50.44,15.66,31.31-22.03Z"/><path class="cls-4" d="m193.63,714.54s-.82-206.26,25.85-209.16c0,0,1.16-12.18,4.06-12.76,0,0,62.04-9.86,76.54-38.85,0,0-1.74,37.11,30.15,32.47,31.89-4.64,71.32-39.43,67.84-64.36,0,0,59.72,45.23,80.6,70.16,20.87,24.93,49.2,222.5,49.2,222.5H193.63Z"/><path class="cls-10" d="m399.8,391.15s-2.9-40.01-8.12-46.39c-5.22-6.38,0-18.55,0-22.03s-8.12-37.11-45.23-38.27c-37.11-1.16-71.32-3.19-71.9,49.43-.58,52.62-2.9,69.43-2.9,69.43,0,0-17.39-5.8-23.19-28.41,0,0-16.24-5.03-17.39-31.22,0,0-9.28-29.08,6.38-52.86,0,0,.58-27.83,29.57-39.43,0,0,7.54-21.45,22.61-26.09,15.08-4.64,34.79,0,34.79,0,0,0,26.09-9.92,46.97-2.06,20.87,7.86,27.25,26.41,34.21,26.41s31.31,15.08,24.35,46.39c0,0,16.81,26.09,8.7,45.81,0,0,5.8,29.57-12.76,41.46,0,0-6.91,31.02-15.66,30.44-4.68-.31,8.74-14.69,8.7-22.61-.05-8.53-5.8-18.55-19.13,0Z"/><path class="cls-33" d="m226.35,107.29s4.36,29.72,16.7,37.01c0,0,9.44,10.92-3.63,23.27,0,0,33.4,29.93,21.78,41.83s-31.95,5.37-25.42,14.81-1.45,20.33-1.45,20.33c0,0,5.45-.85,5.08,4.36-.34,4.86-12.34,3.63-13.07,7.26-.73,3.63,27.59,21.78-7.26,26.14-34.86,4.36-66.81-44.3-66.81-44.3l-29.05-58.09,39.21-72.62,31-17.43,20.56,3.63s7.63-4.94,12.34,13.8Z"/><path class="cls-33" d="m179.15,372.34s6.17-60.63,9.08-62.81-69.71-64.99-71.28-62.81c0,0-16.58,19.97-42.72,32.68l-50.83,59.55,155.76,33.4Z"/><path class="cls-41" d="m212.56,80.79s26.5,16.99,14.89,32.28c-11.62,15.28-11.26-4.32-11.26-4.32,0,0,1.82,9.77-1.82,10.15-3.63.38-8.71-3.98-8.71-3.98,0,0-5.08,3.99-4.36,6.54.73,2.54.73,7.99-5.08,6.17-5.81-1.82-9.08-2.9-8.35-.36.73,2.54-1.65,5.81-.1,7.26,1.55,1.45,1.38,3.99-1.98,5.45-3.37,1.45-9.17,3.63-9.9,12.71-.73,9.08-6.17,10.17-9.08,9.08-2.9-1.09,10.89,11.62-2.9,22.15-13.8,10.53-17.06,0-17.06,0,0,0,5.45,5.08,3.63,15.61-1.82,10.53-7.26,11.62,1.09,15.61,8.35,3.99,16.7,11.26,26.5,6.17,9.8-5.08,7.26-11.4,3.99,1.74-3.27,13.14-1.98,24.4,3.73,23.67,5.71-.73,1.72.36,4.99,4.72,3.27,4.36,1.45,3.99,7.62,5.81,6.17,1.82,2.51,8.76,6.14,3.68,3.63-5.08-3.96,6.12,2.57,10.12,6.54,3.99,11.62,4.36,13.8,7.99,2.18,3.63-5.45,13.07-7.99,14.16-2.54,1.09-12.71,11.62-13.8,13.43-1.09,1.82-13.43,13.43-13.43,13.43,0,0-6.73,5.1-13.17-3.44s-7.53-12.9-11.89-13.99c-4.36-1.09-12.34,3.99-15.25-9.8-2.9-13.8-2.18-13.8-8.71-18.52-6.54-4.72-9.44-6.17-10.89-11.26-1.45-5.08-2.06-13.43-5.45-14.89-3.39-1.45-60.15,73.83-72.25,65.84-4.9-3.23,19.24-20.82,10.17-48.41-9.08-27.59,35.58-98.03,35.58-98.03l59.18-53.01,22.15-33.77h37.4Z"/><path class="cls-16" d="m17.22,269.95s5.81,23.24,34.13,5.08c0,0,22.51,4.36,30.5-10.89,7.99-15.25,7.26-33.4,7.26-33.4,0,0,5.91,24.69,22.56,13.07,16.65-11.62,25.12-50.56,5.28-57.59,0,0,88.35-102.16,99.24-102.89,0,0-.97-11.62-7.75-14.52-6.78-2.9-21.3-25.42-23.12-27.59s-11.98-7.81-25.23,2.54c0,0-91.31-28.32-137.43,49.38-46.11,77.7,5.81,111.47,4.72,130.35-1.09,18.88,1.82,38.12-10.17,46.47Z"/><path class="cls-16" d="m178.43,360.36s43.13,47.61,40.49,58.5c-2.64,10.89-215.31,147.85-228.38,145.31-13.07-2.54-27.35-170.07-31.34-166.44s74.73-61.22,74.73-61.22c0,0,50.05-2.47,53.37,1.69,3.33,4.16,14.52-15.61,30.14-9.8,15.61,5.81,24.1,19.96,24.69,25.78.6,5.82,22.43,17.19,28.64,15.31s7.66-9.14,7.66-9.14Z"/><path class="cls-38" d="m965.89,412.97s-90.3,100.67-97.93,188.53l288.97,239.25-12.54-396.37s-106.06-61.9-103.51-78.42l2.54-31.51s21.61-21.87,10.17-38.4c-11.44-16.52-11.44,13.39-11.44,13.39,0,0,8.9-51.52-24.15-73.13,0,0-87.7,15.25-87.7,19.07s3.81,64.82,3.81,64.82c0,0-24.15-2.54-7.63,26.69,0,0,7.63,24.15,15.25,0,0,0,9.69,40.83,22.08,44.64l5.24,19.07-3.18,2.37Z"/><path class="cls-34" d="m934.11,320.2s-14.62-60.69,14.93-66.41c29.55-5.72,52.43-16.68,57.67-15.73,5.24.95,31.93,16.21,34.79,39.08,2.86,22.88,2.86,18.11,4.77,10.96,1.91-7.15,9.53-32.89,13.35-39.56,3.81-6.67-14.3-58.15-40.04-61.01-25.74-2.86-23.83-22.88-76.74,0-52.91,22.88-36.7,82.93-28.6,94.85,8.1,11.92,13.5,39.88,19.86,37.81Z"/><path class="cls-34" d="m1064.48,391.93l32.32,15.82s-30.13,10.49-36.67,39.56c-6.54,29.07-14.33,78.64-14.33,78.64h-53.38l18.11-72.93s27.35,2.2,53.95-61.1Z"/><path class="cls-34" d="m965.25,458.94c-1.06-.98,11.44-13.54,11.92-5.44.48,8.1-7.15,18.11-3.81,30.5,3.34,12.39,6.2,48.14-5.24,45.28-11.44-2.86-19.54-4.29-10.96-28.12,8.58-23.83,11.92-38.7,8.1-42.23Z"/><path class="cls-30" d="m845.53,695.97l38.01-10.78,11.35-31.21v-10.78s4.54-11.21,0-15.18-15.04-17.31-15.04-21.28.57-13.19-.85-20c0,0,3.97-3.69,7.94-22.41l-55.6-47.66-39.72-23.26-24.96,2.27-13.62,8.51s-6.81,41.42,5.67,72.62c0,0,7.38,35.74,19.86,45.96,0,0-2.84,20.43-49.36,24.96-46.53,4.54-7.94,44.82-7.94,44.82l26.67,17.02h77.16l20.43-13.62Z"/><path class="cls-40" d="m852.34,698.8s9.65-23.26,15.32-26.1c5.67-2.84,3.97-15.32,9.65-19.86,5.67-4.54,17.59-12.48,17.59-15.32s-22.13-8.51-21.28-19.29c.85-10.78-5.28-32.11,0-36.88,5.28-4.77,13.24-17.1,7.26-22.23-5.98-5.13-21.16-7.28-31.37-14.65-10.21-7.38-45.96-31.77-53.9-32.34-7.94-.57-17.59-2.84-18.72-5.67s-16.16,8.27-25.1,9.24c-8.94.97-6.67-36.48,3.54-48.96,0,0-4.54-22.7,13.62-35.74,0,0,30.6-18.16,51.61-12.48,0,0,17.61-3.9,24.98-1.1,0,0,56.74,15.85,55.6,83.94,0,0-1.67,7.38.02,9.08,0,0,18.14,35.34-9.09,47.17,0,0,6.81,39.64,19.29,48.72,0,0,18.16,38.58,14.75,49.93,0,0-29.68,46.26-59.57,45.96l-41.42,7.38s13.05-14.18,27.23-10.78Z"/><path class="cls-40" d="m719.85,766.49l-64.96-56.91s11.95-62.41,51.37-68.09c0,0,62.68-5.11,72.32-18.72,0,0-7.38,26.67-51.63,31.77,0,0-3.4,30.07,23.26,44.82,0,0-9.94,67.12-30.36,67.12Z"/><path class="cls-36" d="m577.23,671.26s4.08,14.75-7.25,16.02c-11.33,1.26-28.32-15.23-28.32-15.23-15.86-1.48-14.05-35.01,8.16-52.79,22.2-17.78,27.41,17.44,27.41,17.44,9.97,2.53,13.14-19.81,13.14-19.81,21.75-2.11,18.58-26.13,18.58-26.13,19.94-2.11,50.3-20.23,50.3-20.23,36.25,6.74,46.22-11.8,46.22-11.8,7.7,5.06,24.47,0,24.47,0,14.5,32.03-.91,56.48-.91,56.48,8.16,2.11,12.23,30.77,13.14,39.62s-11.78,9.69-11.78,9.69c5.89,14.75-6.8,18.55-7.25,21.92-.45,3.37-7.25,5.48-7.25,5.48,0,0,8.16.42,5.44,7.17-2.72,6.74-10.87,3.37-10.87,3.37-12.69,26.55,21.3,25.29,22.2,37.51.91,12.22-13.59,16.44-13.59,16.44,64.79,7.59,62.08,18.55,62.08,18.55h-327.6v-23.6s45.76-.84,56.64-18.97l35.34-57.74,31.72-3.37Z"/><path class="cls-8" d="m661.51,562.52s-3.62,19.81-22.66,26.97-24.92,3.79-24.92,3.79c0,0-4.53,22.76-17.22,27.4-12.69,4.64,4.08,52.26,14.05,18.97,0,0,4.53,10.12-3.17,16.44,0,0-1.36,6.74,4.98,3.79,0,0,.91,16.44-17.22,13.91,0,0,4.98,26.13,40.33,17.7,0,0,5.44-4.64-2.27-8.01-7.7-3.37,4.98-4.64,10.87-3.79,5.89.84.45,14.33,17.22,9.69,16.77-4.64,16.31-24.02,40.78-26.13,24.47-2.11,28.89,3.58,28.89,3.58,0,0,8.27,12.01-9.86,14.54-18.12,2.53-49.39,1.69-47.58,26.13,1.81,24.45,31.72,3.79,31.72,3.79,0,0,2.27,22.52,26.28,25.8,0,0,9.52,29.42-51.2,13.4-60.72-16.02-106.93-14.33-107.39-30.77-.45-16.44,6.34-53.11,9.52-52.9,0,0-8.38-7.59-8.61-11.8,0,0-11.78.21-8.38-6.74s3.4-8.22,6.34-1.69c2.95,6.53,0-14.54,0-14.54l4.08-16.44s35.12-70.39,56.19-66.81c21.07,3.58,29.23,13.7,29.23,13.7Z"/><path class="cls-8" d="m519.69,679.69s-84.73-2.95-59.36-82.19c0,0-4.53-23.18,10.87-36.67,0,0,6.34-27.4,32.17-35.83,0,0,8.61-19.39,31.26-20.65,0,0,4.08-17.28,40.33-17.28,0,0,21.75-8.43,38.06-6.32,0,0,13.14-7.17,30.81-6.32,0,0,31.26.84,39.87,4.64,0,0,62.98-11.38,77.93,25.29,14.95,36.67,5.54,70.04-26.23,91.71,0,0,4.02-18.37-5.49-37.34,0,0-14.05,5.9-24.47,0,0,0-9.86,19.02-46.22,11.8,0,0-31.58,20.6-50.3,20.23,0,0,3.51,23.76-18.72,27-22.23,3.24.14-.87.14-.87,0,0-5.51,20.75-11.67,19.99,0,0-11.36-31.36-32.69-10.11-21.34,21.25,2.77,41.7,14.84,40.88,0,0-10.81,7.5-15.34,6.98-4.53-.53,18.24,66.49-35.46,67.44,0,0,16.37-35.62,9.63-62.38Z"/><path class="cls-12" d="m931.85,568.92s-7.92-5.09-12.68,0c-4.75,5.09-18.49,31.08-16.9,33.62,1.58,2.55-10.56,8.15-10.56,15.28v12.23s-7.39,8.66-4.75,13.76c2.64,5.09-20.07-6.62-25.35,3.57,0,0,22.18,4.59,22.18,9.68s-11.62-3.06-11.62-3.06c0,0,0,7.64,3.7,7.64,0,0-22.18-6.11-18.49-6.11s1.58,16.81,11.62,18.85c10.04,2.04,43.86,21.91,43.86,21.91l24.8,3.57,12.68-111.06-18.49-19.87Z"/><path class="cls-18" d="m978.33,543.45s-38.03-8.66-53.87,10.19c0,0,15.85,8.66-11.09,55.02,0,0-5.28,10.7,9.51,10.7s22.52,60.12,22.52,60.12l-13.54,5.6-7.92,15.28-2.11,37.7,41.73,19.36,79.75,2.55,24.82-9.17s-2.11-58.08-8.45-94.25c-6.34-36.17,8.45-53.49,8.45-53.49,0,0-15.32,4.08-27.46,5.6-12.15,1.53-18.49,10.19-19.01.51s12.68-56.55-11.09-54c-3.36.36-26.41,4.59-32.22-11.72Z"/><path class="cls-9" d="m931.81,636.68c-1.93-.7-4.02-.8-6.06-.49-2.54.4-6.23.21-6.58-4.1-.53-6.62,12.68-25.47,31.16-14.77,18.49,10.7,23.24,22.42,26.41,20.89,3.17-1.53,42.78-36.25,39.61-44.36s-41.73-44.8-38.03-50.4,76.58-1.99,76.58-1.99l37.5,18.8s23.77,24.51,21.13,29.07c-2.64,4.56,6.87,2.52,13.73,6.59,6.87,4.08,5.81,12.23,5.81,12.23,0,0,11.09-7.13,15.85-.51,4.75,6.62,14.26,13.76,13.73,17.32-.53,3.57-10.04,15.79-10.56,10.19-.53-5.6,0-7.64-4.23-6.62-4.23,1.02-21.65,19.87-33.27,7.13,0,0,4.75,20.38,19.01,6.62,0,0,6.87,3.62,1.06,8.43,0,0,14.79,13.98,3.17,16.53,0,0,18.49,10.7,8.98,18.34,0,0,13.2,20.89-6.34,21.91,0,0,5.28,23.95-5.81,18.34-11.09-5.6-16.37,13.25-21.65,8.66-5.28-4.59-27.46,0-41.73-7.64-14.26-7.64-24.3,7.64-16.9-40.76,7.39-48.4,3.25-71.39-2.11-72.34-5.36-.96-15.32,8.15-20.6,6.62,0,0-16.37,69.29-74.47,69.29s-46.48-24.96-34.86-34.64c0,0,8.43-6.62,4.74-8.66-3.69-2.04-6.34-8.59,4.24-8.59,2.78,0,1.98-.54.49-1.09Z"/><path class="cls-29" d="m725.32,766.09s-6.34-55.53,18.49-64.19c24.82-8.66,38.03-7.13,38.03-7.13l32.22-21.4h10.04s8.98-9.17,12.15-9.17,69.19-4.08,85.56,27c16.37,31.08,50.18,59.1,79.23,58.59,29.05-.51,64.13,6.62,62.17-4.59-1.96-11.21-15.08-27.77-7.75-26.65,7.33,1.12,67.06-5.45,67.06,30.72s2.11,20.38,2.11,20.38l-400.02,3.43.72-7Z"/><path class="cls-29" d="m1003.15,487.41s-26.41-16.81-48.06-14.77c-21.65,2.04-51.43,26.49-33.11,45.34,0,0-2,21.75-9.53,22.34,0,0-.34,31.67,9.53,30.14,9.87-1.53,38.92-20.38,38.92-20.38,0,0,13.2-10.7,28.52-5.6,15.32,5.09,37.5,1.02,44.89,10.7,7.39,9.68,45.42,32.61,67.61,28.02,0,0,12.68,14.77,23.24,4.08s14.79-26.49,4.75-34.13c0,0,3.7-17.68-33.27-21.32l-1.58-19.94s-24.3-28.53-39.61-30.06c-15.32-1.53-31.16-5.6-52.29,5.6Z"/><path class="cls-31" d="m485.88,693.78l-21.3-23.54s16.81-22.79,17.93-41.1c0,0,10.09,6.35,9.71-15.32,0,0,16.44-38.86,3.74-38.48-12.7.37-6.73,5.23-9.34,7.85-2.62,2.62,3.36-57.16,3.36-57.16l-34-35.49-55.67-5.6-41.85,9.34-4.86,38.11-2.99,27.65s-1.49,24.66-1.87,27.65-1.87-16.81-12.33-14.57c-10.46,2.24-4.86,48.94,5.6,50.07,10.46,1.12,7.85-10.09,7.85-10.09,0,0,7.1,44.83,9.34,47.08s-2.24,62.02-2.24,62.02l69.87,21.3,54.92-24.66,4.11-25.03Z"/><path class="cls-6" d="m217.62,790.93s8.59-31.76,11.21-33.25-3.74-30.64,5.23-33.25c8.97-2.62,64.26-17.56,72.86-25.41,8.59-7.85,31.76-23.16,38.11-24.29s14.2-14.57,14.2-14.57c0,0,40.35,49.69,79.58,48.2,0,0,19.36-10.03,28.77-34.81,0,0,48.94,3.8,71.74,12.01,22.79,8.22,44.83,27.27,44.83,27.27v80.33l-366.52-2.24Z"/><path class="cls-37" d="m485.32,589.26s14.29-48.48,12.14-54.27c-2.45-6.61,6.35-24.66,0-33.25-6.35-8.59-25.03-48.94-68.37-51.19-43.34-2.24-79.21,18.68-89.3,38.86-10.09,20.18-7.1,27.65-5.98,36.62,1.12,8.97,10.09,54.18,14.94,61.65,0,0,4.11-26.15,8.59-28.4s12.7-32.67,11.58-40.25c0,0,29.14-21.4,53.43-13.93,0,0,2.99,3.74,14.57.75,0,0,47.68,5,48.38,83.41Z"/><text class="cls-3" transform="translate(366.22 75.15)"><tspan class="cls-1"><tspan x="0" y="0">Chronicles of </tspan></tspan><tspan class="cls-1"><tspan x="-96.28" y="55.26">Tunisian Banknotes</tspan></tspan><tspan class="cls-2"><tspan x="-37.84" y="110.52">Portraits and Landmarks</tspan></tspan></text><path class="cls-28" d="m224.16,395.21s7.09-48.19-6.54-71.2-46.87-47.72-76.27-48.57c-29.4-.85-72.01,16.19-80.53,30.68s-23.01,27.27-13.63,77.55c9.37,50.28,31.53,20.45,31.53,20.45l40.05-97.15,43.46,28.12,14.49,77.81,34.09,5.7,13.36-23.39Z"/><path class="cls-17" d="m145.19,569.44s37.05-29.99,37.9-37.66c.85-7.67-6.37-29.66-6.37-29.66,0,0,20.45-12.78,26.42-44.31,0,0,26.42-22.16,25.56-49.43s-20.45-5.97-20.45-5.97l6.82-54.54-13.6-25.69c-4.94-9.33-12.88-16.72-22.53-20.97l-23.29-10.26c-9.27-4.08-19.62-5-29.46-2.6l-27.09,6.59c-9.19,2.24-17.05,8.18-21.71,16.42l-11.8,20.88c-2,3.54-3.06,7.55-3.06,11.62v58.55s-3.41-21.3-15.34-18.75c-11.93,2.56-2.56,54.54,9.37,50.28,0,0,9.37,42.61,6.82,50.28l2.56,57.95,37.5,41.76,31.76,9.37,36.41-5.11-26.42-18.75Z"/><path class="cls-22" d="m65.08,496.15s51.13,65.62,80.1,73.29c0,0,31.42-25.36,36.64-51.13l35.79,110.78-21.3,33.23h-112.49l-18.75-112.49v-53.69Z"/><path class="cls-28" d="m-113.65,769.56l38.13-212.9s103.11-42.61,110.78-47.72c7.67-5.11,28.12-24.71,28.12-24.71l95.5,301.47-272.53-16.13Z"/><path class="cls-28" d="m196.32,662.33h139.76s-15.34-100.56-32.38-108.23c-17.04-7.67-126.97-51.98-126.97-51.98,0,0,30.68,132.94,19.6,160.21Z"/><path class="cls-28" d="m169.9,662.33h-36.5s9.23-46.02-10.37-62.21l22.16-30.68,26.42,18.75s-14.49,13.63-1.7,74.14Z"/><path class="cls-26" d="m-13.13,775.39s16.35-9.81,15.63-34.88l-37.79,34.88,37.81-43.61s-17.1-78.13,59.93-79.58l5.81-8.72,7.63,3.63s37.26-18.78,52.76-18.62c15.49.16,82.06-16.99,82.06-16.99,0,0,10.9-16.35,9.08-27.62-1.82-11.26.73-26.83,6.54-32.68,5.81-5.84,0-1.48,0-1.48,0,0,1.09-11.99-2.91-16.35-4-4.36,3.27-19.99,3.27-19.99,0,0,10.54,6.9,8.72,13.08s7.37-28.34,13.68-31.98,55.73-13.08,62.99,19.99l2.54,12.35s8.36-15.63,14.9-6.54l6.9,10.9-15.26.73s19.26-4.36,25.07,8.72,3.63,19.37,3.63,19.37c0,0-23.26-20.57-27.25-17.61-4,2.96,22.17,6.6,19.99,28.4s-9.45,1.82-9.45,1.82c0,0,7.99,11.26,6.18,11.26s-6.54-2.18-6.54-2.18c0,0,2.54,2.54,6.18,6.9s0,8.36,0,8.36c0,0,6.9-2.54,6.54.73s-5.09,5.81-5.09,5.81c0,0,1.45,4.36,4.36,4,2.91-.36,2.18,4.36-.73,4.36s-9.08-6.18-9.08-6.18c0,0,.73,14.54,2.91,15.63s-2.91,4.36-2.91,4.36l-1.09,17.44-5.81-7.63s-3.63,26.53-7.63,34.88c0,0,14.17,23.62,12.72,31.98s-7.27,41.42-12.35,47.24c0,0,21.08,10.54,25.44,25.8H76.62s-41.41-67.04-19.99-98.11l-13.44,15.26s8.72,48.69,4,61.05c-4.72,12.35-13.08,21.8-13.08,21.8H-13.13Z"/><path class="cls-24" d="m124.95,660.2s-29.07,39.61-15.99,112.28c0,0,10.54-32.34,56.32-23.26l2.18,26.16,36.7-1.45-1.82-24.71s37.79,9.81,36.7-42.15c-1.09-51.96-1.82-83.21,15.26-100.29,17.08-17.08-7.63-22.89-7.63-22.89l-58.14,4-63.59,72.31Z"/><path class="cls-14" d="m176.81,473.37l-4.49,13.51-24.84,6.54s-12.35-5.81-18.53,4c-6.18,9.81,3.63,15.99,3.63,15.99,0,0-14.17,53.05-16.35,53.78s-20.35,27.62-20.35,27.62h-4.72v6.09l-15.63,19.71s-9.81,19.26-4,19.62-1.84,1.45-1.84,1.45c0,0-2.52-4-5.06-3.63s-2.54,10.9,15.99,13.81c0,0,19.26-8.36,12.35-22.53,0,0-2.18-3.27,3.63-5.09,5.81-1.82,4.72-10.54,4.72-10.54,0,0,29.07-17.08,34.16-36.34,5.09-19.26,9.45-21.08,9.45-21.08,0,0,8.36,17.08,19.26,7.27,0,0,7.63,11.63,5.45,16.72s-44.33,37.79-52.33,75.22c0,0-10.9,28.71,30.89,28.35,41.79-.36,24.12-39.25,24.12-39.25,0,0,34.02-37.79,43.83-39.97s38.15-60.14,38.15-60.14c0,0-1.09-40.15-11.26-44.15s-18.53-2.91-18.53-2.91c0,0-15.63-4.36-15.63-7.99s-2.91-17.44-2.91-17.44l4.36-11.99,5.09,7.63-6.54,5.81s6.54,13.81,8.72,14.54c2.18.73,4.72-5.09,4.72-5.09l3.27,1.45s-2.18-4.72,0-4.72,5.45,2.18,5.45,2.18l6.54-.36s-5.45-6.9-2.54-7.63,7.27,2.91,7.27,2.91c0,0-1.82-3.27-.36-5.09,1.45-1.82,5.61.36,5.61.36,0,0,3.43-11.63,0-11.99-3.43-.36-2.71-3.27-14.33-5.81,0,0-4.36-21.44-15.63-22.17-11.26-.73-28.71-3.27-28.71-3.27v43.97l-2,13.26-10.1-12.6Z"/><path class="cls-14" d="m66.53,646.09c2.55,2.37,6.93,4.63,14.09,5.76,0,0,10.84-4.7,13.34-13.04-10.09,4.3-18.06,8.31-18.06,8.31l-7.63-3.63-1.73,2.6Z"/><path class="cls-26" d="m216.16,604.61c9.81-2.18,40.33-60.5,40.33-60.5,0,0-2.33-37.75-11.23-44.63-3.97,8.12-8.66,22.6-9.76,26.54,1.19-6.05-8.8-12.62-8.8-12.62,0,0-7.27,15.63-3.27,19.99,4,4.36,2.91,16.35,2.91,16.35,0,0,5.81-4.36,0,1.48-5.81,5.84-8.36,21.41-6.54,32.68,1.11,6.87-2.52,15.63-5.51,21.42.69-.33,1.33-.58,1.88-.7Z"/><path class="cls-24" d="m186.67,489.18c2.73,2.29,6.7,2.32,9.53.15,6.05-4.63,17.75-14.93,20.68-27.17,3.02-12.63,4.38-29.4,4.86-36.85.16-2.49-.89-4.89-2.83-6.45-5.16-4.16-15.91-11.83-24.93-11.57-8.22.24-15.1,4.83-18.78,7.87-1.84,1.52-2.84,3.82-2.74,6.21l.89,21.55c.1,2.51-1.61,4.41-3.83,5.6-.29.16-.42.49-.26,1.1.59,2.2-.78,7.13,1.08,8.75,1.31,1.14,2.42,2.49,2.87,4.17,1.81,6.66,6.29,20.62,13.43,26.63Z"/><path class="cls-26" d="m211.32,456.92c-.67-8.4-7.37-15.17-15.77-15.78-3.59-.26-7.73.18-12.21,1.99-14.81,5.98-6.13,39.58,6.6,41.36,12.73,1.78,21.63-15.49,21.74-18.52.06-1.53-.06-5.24-.36-9.05Z"/><path class="cls-26" d="m208.94,608.66s-1.9,10.93,4.08,9.86c0,0,.54,34.12,29.37,13.86,28.83-20.26,32.64-53.31,32.64-53.31l-33.19-14.9-32.9,44.49Z"/><path class="cls-26" d="m78.07,640.7l10.17-15.26s.48-4.85-3.15-3.39c-3.63,1.45-15.41,19.62-15.41,19.62l8.38-.97Z"/></svg>