<?xml version="1.0" encoding="utf-8"?>
<!-- Generator: Adobe Illustrator 27.5.0, SVG Export Plug-In . SVG Version: 6.00 Build 0)  -->
<svg version="1.1" id="Layer_1" xmlns="http://www.w3.org/2000/svg" xmlns:xlink="http://www.w3.org/1999/xlink" x="0px" y="0px"
	 viewBox="0 0 1217 2500" style="enable-background:new 0 0 1217 2500;" xml:space="preserve">
<style type="text/css">
	.st0{fill:#FFFFFF;}
	.st1{fill:#0E499D;}
	.st2{fill:#D30529;}
</style>
<path class="st0" d="M303.3,64.6h610.5c112.8,0,204.3,92.4,204.3,206.4v1958.1c0,114-91.5,206.4-204.3,206.4H303.3
	C190.5,2435.4,99,2343,99,2229.1V270.9C99,157,190.5,64.6,303.3,64.6z"/>
<path class="st1" d="M867.4,2213c2.2-35.3,1.5-46.9-3.3-52.7c-3.6-4.4-6.2-18-6.3-33.4c-0.2-23.4-3.3-32.1-30.8-85.5
	c-29.3-57-30.4-60.1-25.2-74.5c4.9-13.4,4.2-18-6.5-42.5c-10.6-24.4-15.4-29.8-43.7-48.9c-55.1-37.2-99.3-75-173-148.1
	c-82.3-81.6-150.6-171.3-213.9-280.9c-22-38.1-23.7-39.6-43.1-39.7c-14.6-0.1-32.1-12.8-32-23.3c0-3-17.8-42.4-39.7-87.4
	c-56.7-116.8-61.5-141.7-44.2-226.7c10.3-50.4,12.2-55,33.7-78.7c22.8-25.2,19.2-32.3-18.1-36c-49.8-4.9-49.3-4.6-59.6-36.6
	c-5.1-15.7-9.2-33.5-9.2-39.6c0-20.1,22.8-83.6,54.1-150.8c17-36.5,38.8-86.3,48.4-110.6c34.3-86.6,81.6-155.8,119.8-175.3
	c15.3-7.8,44.9-13.6,133.2-26.3c49.2-7.1,52.6-10.6,59.7-61.6c4.1-29.6,3.7-34.3-4.1-46.8c-5.6-9.1-8.6-21.9-8.6-36.5
	c0-20.6,1.2-23.2,13.3-29.4c11.7-6.1,13.3-9.2,13.3-26.4c0-41.3,8.3-64.3,31.5-86.9c5.5-5.4,10.9-10.9,16.1-16.6H325.4
	c-103.2,0-186.8,83.6-186.8,186.8V2203c0,103.2,83.6,186.8,186.8,186.8h555.7c-1.9-4.1-5.8-10.8-10.3-17.5
	C858.1,2354,858.3,2360.4,867.4,2213z"/>
<path class="st2" d="M892.9,111.3H732.1c1.6,1.9,3.9,3.9,6.6,5.7c19.9,13,50.1,44.4,54.9,57.1c7.2,19.1,5.6,44.4-4.6,71.8
	c-5.9,15.7-8.4,29.8-6.7,38c3.1,15.6-12.2,48.8-30.4,65.7c-6.6,6.1-15.9,18.7-20.7,28.1c-4.8,9.4-16.7,25.7-26.5,36.3
	c-9.8,10.6-17.1,22.6-16.3,26.8c0.8,4.1,12.4,13.4,25.8,20.6c13.4,7.2,33.4,21.3,44.5,31.4c11.1,10.1,33.5,27.7,49.8,39.2
	c58.6,41.4,86.6,112.2,86.9,219c0.1,47.3,23.2,158.3,39.8,191.1c22.7,44.9,30.9,69.6,38,114.4c9.1,57.6,9.4,58.2,27.7,65.9
	c17.5,7.3,62.8,44.1,62.8,51c0,2.4,4.5,10.6,10,18.3l6.1,8.6v-902C1079.7,194.9,996.1,111.3,892.9,111.3z M1077,1362.2
	c0,2.2-9.9,14.8-21.9,28c-83.9,91.8-227.6,71.4-280.3-39.9c-12.8-26.9-14.1-33.7-14.1-71.8c0-36.3,1.6-45.5,11.9-67.3
	c16.4-35,47.7-67,81.8-83.8c15.6-7.7,29.2-15.4,30.3-17.2c1.1-1.8-12.9-33.5-31.2-70.4c-42.1-85.1-47.1-100.3-66.2-201.9
	c-8.6-45.9-16.6-86-17.7-89c-3.5-9.8-15.9-6-46.5,14.3L693.2,783l-27.1,68.6c-14.9,37.7-27.1,74.2-27.1,81.1
	c0,7.7,4.4,16.6,11.5,23.2c17.7,16.6,22.5,28.7,52.5,133.6c22.1,77.2,27,99.8,23.5,107.6c-3.4,7.4-1.2,23.7,9,66.7
	c15,63.2,20.6,96.7,27.5,165.2c7.1,69.5,14.6,91.6,54.9,161.5c26.8,46.4,35,74.4,53.8,183.2c8.6,49.9,17.3,93.8,19.4,97.6
	c2,3.8,10.8,17.4,19.5,30.4c23.9,35.5,27.5,51.9,18.9,86c-3.9,15.6-8.4,39.1-9.9,52.3c-3,26.3,6.5,90,17.3,115.8
	c3.7,8.7,5.6,19.7,4.4,24.4c-1.2,4.7,3.9,28,11.3,51.9c23.3,74.7,22.3,106.4-4.6,140.3c-4.8,6.1-7.4,9.5-8.9,11.9
	c80.8-20.6,140.6-93.8,140.6-181v-844.6C1078.1,1359,1077,1360.4,1077,1362.2L1077,1362.2z"/>
<path class="st0" d="M205.1,1969.3h75.5l43.6,192.6h0.7v-192.6h63.2v312.5H314l-45-193h-0.7v193h-63.2V1969.3z M420.8,1969.3h102
	c48.3,0,70.8,31.1,70.8,77.9c0,33.3-12,63-40.7,70v0.9c34.1,3.9,47.9,39,47.9,71.3c0,54.3-21.8,92.4-78.1,92.4h-102V1969.3
	L420.8,1969.3z M488.3,2091.9h16.3c13.8,0,21.4-14.9,21.4-31.5c0-17.5-7.6-32.4-21.4-32.4h-16.3V2091.9z M488.3,2223.2h18.9
	c12.3,0,24-13.1,24-38.5c0-24.1-11.6-37.6-24-37.6h-18.9V2223.2z M668.1,1969.3h85l63.2,312.5h-71.9l-6.9-54.7h-53.7l-6.9,54.7
	h-71.9L668.1,1969.3z M710.9,2033.2h-0.7l-18.5,132.6h37.8L710.9,2033.2z"/>
</svg>
