<?xml version="1.0" encoding="utf-8"?>
<!-- Generator: Adobe Illustrator 27.7.0, SVG Export Plug-In . SVG Version: 6.00 Build 0)  -->
<svg version="1.1" id="Layer_1" xmlns="http://www.w3.org/2000/svg" xmlns:xlink="http://www.w3.org/1999/xlink" x="0px" y="0px"
	 viewBox="0 0 16 16" style="enable-background:new 0 0 16 16;" xml:space="preserve">
<style type="text/css">
	.st0{fill:#FFFFFF;}
</style>
<g>
	<g>
		<path class="st0" d="M7.5,13.9c-0.1,0-0.2-0.1-0.3-0.2c-0.1-0.3-0.2-0.7-0.4-1.4c0-0.1-0.2-0.5-0.9-2.6c-0.8,0.7-1.4,1.2-2,1.6
			C3.6,11.5,3.3,11.7,3,12c-1,0.8-1.3,1.2-1.4,1.4c-0.1,0.2-0.2,0.3-0.3,0.3c-0.1,0-0.1,0-0.2,0l-0.2,0c-0.2,0-0.5-0.2-0.5-0.8
			c0-0.1,0-0.2,0-0.4c0.1-0.6,0.3-1.4,0.5-2.1c0.5-1.5,1.4-3.8,2.6-6.7C3.7,3.1,3.9,2.6,4,2.4c0.1-0.1,0.2-0.2,0.3-0.3
			c0.1,0,0.2,0,0.3-0.1c0.1,0,0.1,0,0.2,0C5,2,5.2,2.1,5.3,2.3c0.2,0.2,0.4,0.6,0.6,1.2C6.1,4,6.4,4.9,6.8,6.1
			C6.8,6.3,6.9,6.5,7,6.7c0.4-0.4,0.7-0.6,0.9-0.8C8,5.8,8.2,5.7,8.3,5.7l0.1,0c0.1,0,0.2,0.1,0.3,0.2C8.8,6,8.9,6.1,8.9,6.2
			c0,0.2-0.2,0.7-1.5,2c0.8,2.5,1.1,4.2,1.1,5.1c0,0.1,0,0.2-0.2,0.4c-0.1,0.1-0.2,0.1-0.4,0.2c-0.1,0-0.2,0.1-0.4,0.1
			C7.6,13.9,7.6,13.9,7.5,13.9z M4.6,5.5c-0.4,1.2-1,2.7-1.7,4.6c0.7-0.6,1.5-1.3,2.4-2.1C5.1,7.1,4.8,6.3,4.6,5.5z"/>
		<path d="M4.8,2.2c0.2,0,0.3,0.1,0.4,0.2C5.4,2.6,5.5,3,5.7,3.5C6,4.1,6.2,5,6.6,6.1c0.1,0.4,0.2,0.7,0.3,0.9
			c0.6-0.5,0.9-0.8,1.2-1C8.1,6,8.2,5.9,8.3,5.9c0,0,0,0,0.1,0c0.1,0,0.1,0,0.2,0.1c0,0,0,0.1,0,0.1c0,0.3-0.5,0.9-1.5,1.9
			c0.8,2.5,1.2,4.2,1.2,5.1c0,0.1,0,0.1-0.1,0.2c-0.1,0.1-0.2,0.1-0.3,0.1c-0.1,0-0.2,0-0.3,0c0,0-0.1,0-0.1,0c-0.1,0-0.1,0-0.1-0.1
			c-0.1-0.3-0.2-0.7-0.4-1.3c-0.1-0.1-0.4-1.1-1-2.9c-0.9,0.8-1.6,1.4-2.2,1.8c-0.3,0.2-0.6,0.5-0.9,0.7C2,12.5,1.5,13,1.4,13.3
			c-0.1,0.1-0.1,0.2-0.2,0.2c-0.1,0-0.1,0-0.2,0l-0.2,0c-0.2,0-0.3-0.2-0.3-0.6c0-0.1,0-0.2,0-0.4c0.1-0.6,0.3-1.3,0.5-2.1
			c0.5-1.5,1.4-3.8,2.6-6.7c0.3-0.6,0.5-1.1,0.5-1.3c0-0.1,0.1-0.1,0.2-0.1c0.1,0,0.2,0,0.3,0C4.6,2.3,4.7,2.2,4.8,2.2
			C4.7,2.2,4.7,2.2,4.8,2.2 M2.4,10.9c0.9-0.8,1.9-1.7,3.2-2.8C5.2,6.8,4.9,5.7,4.7,4.8C4.3,6.2,3.5,8.2,2.4,10.9 M4.8,1.8
			c0,0-0.1,0-0.1,0c0,0,0,0-0.1,0c-0.1,0-0.2,0-0.3,0.1C4,2,3.9,2.1,3.8,2.3C3.7,2.5,3.5,3,3.3,3.6c-1.2,2.9-2.1,5.1-2.6,6.7
			c-0.3,0.8-0.4,1.5-0.5,2.1c0,0.2,0,0.3,0,0.4c0,0.8,0.5,1,0.7,1l0.2,0c0,0,0,0,0,0c0.1,0,0.2,0,0.3,0c0.1,0,0.4-0.1,0.5-0.4
			c0-0.1,0.3-0.5,1.3-1.3c0.3-0.3,0.6-0.5,0.9-0.7C4.5,11,5.1,10.6,5.8,10c0.6,1.9,0.8,2.3,0.8,2.4c0.2,0.6,0.3,1,0.4,1.3
			c0.1,0.2,0.3,0.4,0.5,0.4c0.1,0,0.1,0,0.1,0c0.1,0,0.3,0,0.4-0.1c0.1,0,0.3-0.1,0.4-0.2c0.3-0.2,0.3-0.4,0.3-0.5
			c0-0.9-0.4-2.6-1.1-5c1.3-1.3,1.4-1.7,1.4-2c0-0.1,0-0.3-0.1-0.4l0,0l0,0C8.8,5.6,8.6,5.6,8.4,5.5c-0.1,0-0.1,0-0.1,0
			c-0.2,0-0.4,0.1-0.6,0.2C7.6,5.9,7.4,6.1,7.1,6.4C7,6.3,7,6.2,7,6C6.6,4.9,6.3,4,6.1,3.4c-0.2-0.6-0.4-1-0.6-1.2
			C5.3,1.9,5,1.8,4.8,1.8L4.8,1.8z M3.4,9.4c0.5-1.2,0.9-2.3,1.2-3.2C4.8,6.8,4.9,7.4,5.1,8C4.5,8.5,3.9,9,3.4,9.4L3.4,9.4z"/>
	</g>
	<g>
		<path class="st0" d="M11.4,13.8c-0.5,0-1.1-0.1-1.7-0.2c0,0,0,0,0,0c-0.1,0-0.3,0-0.4-0.1c-0.3-0.1-0.5-0.4-0.5-2.8
			C8.8,9.5,8.8,7.9,9,6l0.1-1.6c0-0.3,0-0.5,0.1-0.7c0,0,0,0,0,0c0,0,0-0.1,0-0.2c0-0.1,0-0.2,0.1-0.3l0-0.1c0-0.1,0.1-0.2,0.3-0.3
			c0.1,0,0.3-0.1,0.4-0.1c0.5-0.2,1.2-0.4,1.9-0.4c0.4,0,0.7-0.1,1-0.1c0.6,0,1.1,0.1,1.6,0.3c0.5,0.2,0.9,0.6,1,1.1
			c0.1,0.3,0.1,0.6,0.1,0.8c0,0.4-0.1,0.9-0.3,1.4c-0.3,0.8-0.8,1.5-1.5,2c0.7,0.3,1.3,0.8,1.6,1.4c0.2,0.4,0.3,0.9,0.3,1.3
			c0,0.8-0.3,1.5-0.9,2.1c-0.3,0.3-0.7,0.6-1.1,0.8C13,13.7,12.2,13.8,11.4,13.8z M10.4,12.3c0.4,0.1,0.7,0.1,1,0.1
			c0.2,0,0.4,0,0.6,0c0.7-0.1,1.3-0.4,1.6-0.7c0.3-0.3,0.5-0.7,0.5-1.1c0-0.2-0.1-0.4-0.2-0.6c-0.1-0.2-0.3-0.4-0.5-0.5
			c-0.3-0.2-0.6-0.3-0.9-0.3c-0.1,0-0.2,0-0.4-0.1c-0.5-0.1-0.8-0.3-0.9-0.6c-0.1-0.2-0.1-0.3-0.1-0.5c0-0.1,0-0.2,0.1-0.3
			c0.3-0.1,0.4-0.2,0.6-0.3C12,7.3,12.2,7.1,12.4,7c0.6-0.5,1.1-1,1.4-1.7C13.9,5,14,4.7,14,4.4c0-0.4-0.2-0.7-0.6-0.8
			c-0.1,0-0.3-0.1-0.5-0.1c-0.6,0-1.3,0.2-2.2,0.5c0.1,0.5,0.1,1.1,0.1,1.8c0,1.4-0.1,3.4-0.3,6.1L10.4,12.3z"/>
		<path d="M12.8,2.4c0.6,0,1.1,0.1,1.5,0.3c0.5,0.2,0.8,0.5,0.9,1c0.1,0.2,0.1,0.5,0.1,0.8c0,0.4-0.1,0.9-0.3,1.3
			c-0.4,0.8-0.9,1.6-1.7,2.2c0.9,0.3,1.5,0.7,1.9,1.4c0.2,0.4,0.3,0.8,0.3,1.2c0,0.7-0.3,1.4-0.8,1.9c-0.3,0.3-0.6,0.5-1.1,0.7
			c-0.6,0.3-1.3,0.5-2.1,0.5c-0.5,0-1.1-0.1-1.7-0.2c-0.2,0-0.3,0-0.4-0.1c-0.3-0.1-0.4-1-0.4-2.6C9,9.5,9,7.9,9.2,6l0.1-1.6
			c0-0.2,0-0.5,0.1-0.7c0-0.1,0-0.1,0-0.2c0-0.1,0-0.2,0.1-0.2c0-0.1,0-0.1,0-0.2c0-0.1,0.1-0.1,0.2-0.2c0.1,0,0.2,0,0.3,0l0.1,0
			c0.5-0.2,1.1-0.4,1.8-0.5C12.2,2.4,12.5,2.4,12.8,2.4 M11.4,12.6c0.2,0,0.4,0,0.6,0c0.8-0.1,1.4-0.4,1.7-0.8
			c0.4-0.4,0.5-0.8,0.5-1.2c0-0.2-0.1-0.5-0.2-0.7c-0.2-0.3-0.4-0.5-0.6-0.6c-0.3-0.2-0.6-0.3-0.9-0.3c-0.1,0-0.2,0-0.3-0.1
			c-0.4-0.1-0.7-0.2-0.8-0.5c-0.1-0.2-0.1-0.3-0.1-0.4c0-0.1,0-0.1,0.1-0.2c0.2-0.1,0.4-0.1,0.6-0.3c0.2-0.1,0.4-0.3,0.5-0.4
			c0.6-0.5,1.1-1.1,1.4-1.7c0.2-0.4,0.2-0.7,0.2-1c0-0.5-0.3-0.9-0.8-1c-0.2,0-0.3-0.1-0.6-0.1c-0.6,0-1.4,0.2-2.4,0.5
			c0.1,0.5,0.1,1.2,0.1,1.9c0,1.4-0.1,3.4-0.3,6.1l0,0.6C10.6,12.5,11.1,12.6,11.4,12.6 M12.8,2c-0.3,0-0.6,0-1,0.1
			c-0.7,0.1-1.3,0.2-1.8,0.4c0,0,0,0,0,0c-0.2,0-0.3,0-0.5,0.1C9.1,2.6,9,2.9,9,3l0,0.1C9,3.3,8.9,3.4,8.9,3.5c0,0.1,0,0.2,0,0.2
			c0,0.2,0,0.4,0,0.6L8.8,6c-0.2,1.9-0.2,3.5-0.2,4.8c0,2.4,0.2,2.9,0.7,3c0.1,0,0.3,0.1,0.5,0.1c0.6,0.1,1.2,0.2,1.7,0.2
			c0.8,0,1.6-0.2,2.3-0.5c0.5-0.2,0.9-0.5,1.2-0.8c0.6-0.7,1-1.4,1-2.2c0-0.5-0.1-1-0.4-1.4c-0.3-0.6-0.8-1-1.4-1.3
			c0.6-0.6,1-1.2,1.3-1.9c0.2-0.5,0.3-1,0.3-1.5c0-0.3,0-0.6-0.1-0.9c-0.2-0.6-0.6-1-1.1-1.2C13.9,2.1,13.4,2,12.8,2L12.8,2z
			 M10.9,4.1c0.8-0.3,1.4-0.4,1.9-0.4c0.2,0,0.3,0,0.5,0.1c0.3,0.1,0.5,0.3,0.5,0.6c0,0.2-0.1,0.5-0.2,0.8c-0.3,0.6-0.7,1.1-1.3,1.6
			c-0.2,0.1-0.3,0.3-0.5,0.4c-0.1,0.1-0.3,0.2-0.4,0.2l-0.1,0l-0.1,0.1C11,7.6,10.9,7.8,10.9,8c0,0.2,0,0.4,0.1,0.6
			c0.2,0.3,0.5,0.5,1.1,0.7c0.1,0,0.3,0.1,0.4,0.1c0.3,0,0.5,0.1,0.8,0.3c0.2,0.1,0.3,0.3,0.5,0.5c0.1,0.2,0.1,0.3,0.1,0.5
			c0,0.3-0.1,0.6-0.4,0.9c-0.3,0.3-0.8,0.6-1.5,0.7c-0.2,0-0.4,0-0.6,0c-0.2,0-0.5,0-0.8-0.1l0-0.2C10.9,9.3,11,7.2,11,5.8
			C11,5.2,11,4.6,10.9,4.1L10.9,4.1z"/>
	</g>
</g>
</svg>
