<?xml version="1.0" encoding="utf-8"?>
<!-- Generator: Adobe Illustrator 27.7.0, SVG Export Plug-In . SVG Version: 6.00 Build 0)  -->
<svg version="1.0" id="Layer_1" xmlns="http://www.w3.org/2000/svg" xmlns:xlink="http://www.w3.org/1999/xlink" x="0px" y="0px"
	 viewBox="0 0 16 16" style="enable-background:new 0 0 16 16;" xml:space="preserve">
<style type="text/css">
	.st0{fill:#FFFFFF;stroke:#D6D6D6;stroke-width:0.2;stroke-miterlimit:10;}
</style>
<g>
	<path class="st0" d="M7.7,13.7c0,0-0.1,0-0.1,0c-0.1,0-0.1,0-0.1-0.1c-0.1-0.3-0.2-0.7-0.4-1.3c-0.1-0.1-0.4-1.1-1-2.9
		c-0.9,0.8-1.6,1.4-2.2,1.8c-0.3,0.2-0.6,0.5-0.9,0.7c-0.8,0.7-1.3,1.1-1.4,1.4c-0.1,0.1-0.1,0.2-0.2,0.2c-0.1,0-0.1,0-0.2,0l-0.2,0
		c-0.2,0-0.3-0.2-0.3-0.6c0-0.1,0-0.2,0-0.4c0.1-0.6,0.3-1.3,0.5-2.1c0.5-1.5,1.4-3.7,2.6-6.6C4,3.2,4.2,2.8,4.3,2.5
		c0-0.1,0.1-0.1,0.2-0.1c0.1,0,0.2,0,0.2,0c0,0,0.1,0,0.1,0c0,0,0.1,0,0.1,0c0.2,0,0.3,0.1,0.4,0.2C5.5,2.7,5.6,3,5.8,3.6
		C6.1,4.2,6.3,5,6.7,6.2c0.1,0.4,0.2,0.7,0.3,0.9c0.6-0.5,0.9-0.8,1.2-1C8.2,6,8.3,6,8.4,6c0,0,0,0,0.1,0c0.1,0,0.1,0,0.2,0.1
		c0,0,0,0.1,0,0.1c0,0.3-0.5,0.9-1.5,1.9c0.8,2.5,1.2,4.2,1.2,5.1c0,0.1,0,0.1-0.1,0.2c-0.1,0.1-0.2,0.1-0.3,0.1
		C7.9,13.7,7.8,13.7,7.7,13.7z M2.5,10.9c0.8-0.8,1.9-1.7,3.2-2.8C5.3,6.9,5,5.7,4.8,4.8C4.4,6.2,3.6,8.3,2.5,10.9z"/>
	<path class="st0" d="M11.3,13.7c-0.5,0-1.1-0.1-1.7-0.2c-0.2,0-0.3,0-0.4-0.1c-0.3-0.1-0.4-0.9-0.4-2.6c0-1.3,0.1-2.9,0.2-4.8
		l0.1-1.6c0-0.2,0-0.5,0.1-0.7c0-0.1,0-0.1,0-0.2c0-0.1,0-0.2,0.1-0.2c0-0.1,0-0.1,0-0.2C9.3,3.1,9.4,3,9.5,3c0.1,0,0.2,0,0.3,0
		l0.1,0c0.5-0.2,1.1-0.4,1.8-0.5c0.3,0,0.7-0.1,0.9-0.1c0.6,0,1.1,0.1,1.5,0.3s0.8,0.5,0.9,1c0.1,0.2,0.1,0.5,0.1,0.8
		c0,0.4-0.1,0.9-0.3,1.3C14.6,6.7,14,7.4,13.2,8c0.9,0.3,1.5,0.7,1.8,1.4c0.2,0.4,0.3,0.8,0.3,1.2c0,0.7-0.3,1.4-0.8,1.9
		c-0.3,0.3-0.6,0.5-1,0.7C12.8,13.5,12.1,13.7,11.3,13.7z M11.3,12.6c0.2,0,0.4,0,0.6,0c0.8-0.1,1.4-0.4,1.7-0.8
		c0.4-0.4,0.5-0.8,0.5-1.2c0-0.2-0.1-0.5-0.2-0.7c-0.2-0.3-0.4-0.5-0.6-0.6c-0.3-0.2-0.6-0.3-0.9-0.3c-0.1,0-0.2,0-0.3-0.1
		c-0.4-0.1-0.7-0.2-0.8-0.5c-0.1-0.1-0.1-0.3-0.1-0.4c0-0.1,0-0.1,0.1-0.2c0.2,0,0.4-0.1,0.6-0.3s0.4-0.3,0.5-0.4
		c0.6-0.5,1.1-1.1,1.4-1.7c0.2-0.4,0.2-0.7,0.2-1c0-0.5-0.3-0.9-0.8-1c-0.2,0-0.3-0.1-0.6-0.1c-0.6,0-1.4,0.2-2.4,0.5
		c0.1,0.5,0.1,1.2,0.1,1.9c0,1.4-0.1,3.4-0.3,6.1l0,0.6C10.5,12.6,10.9,12.6,11.3,12.6z"/>
</g>
</svg>
